<?xml version="1.0" standalone="no"?>
<!DOCTYPE svg PUBLIC "-//W3C//DTD SVG 20010904//EN"
 "http://www.w3.org/TR/2001/REC-SVG-20010904/DTD/svg10.dtd">
<svg version="1.0" xmlns="http://www.w3.org/2000/svg"
 width="200.000000pt" height="200.000000pt" viewBox="0 0 200.000000 200.000000"
 preserveAspectRatio="xMidYMid meet">
<metadata>
Created by potrace 1.14, written by Peter Selinger 2001-2017
</metadata>
<g transform="translate(0.000000,200.000000) scale(0.100000,-0.100000)"
fill="#000000" stroke="none">
<path d="M973 1915 c-58 -24 -79 -109 -39 -154 17 -19 27 -83 16 -102 -5 -6
-23 -17 -41 -24 -90 -31 -165 -106 -199 -198 -14 -37 -20 -42 -55 -48 -146
-25 -284 -128 -346 -260 -16 -32 -30 -49 -42 -49 -25 0 -86 -33 -120 -64 -40
-37 -70 -110 -68 -166 2 -93 63 -183 144 -211 l37 -13 0 -286 c0 -318 2 -330
62 -330 25 0 77 26 98 50 3 3 77 59 165 125 l160 120 325 6 c179 3 336 8 349
12 116 32 241 132 295 238 26 49 35 58 78 73 136 48 197 195 133 322 -29 57
-93 109 -146 119 -31 6 -40 13 -55 48 -18 43 -85 132 -116 155 -9 7 -23 18
-30 25 -24 25 -123 67 -183 79 -72 14 -65 11 -70 35 -6 33 -43 100 -75 136
-27 31 -104 77 -152 91 -12 4 -18 16 -19 38 -2 48 1 61 19 81 8 9 16 34 17 55
3 78 -69 128 -142 97z m370 -889 c56 -23 71 -58 71 -166 0 -107 -13 -150 -53
-177 -23 -16 -57 -17 -346 -17 -290 0 -323 1 -347 17 -40 28 -55 79 -53 184 2
104 16 136 68 158 46 20 613 21 660 1z"/>
<path d="M755 913 c-64 -63 -9 -161 74 -132 55 19 69 82 26 124 -28 29 -76 33
-100 8z"/>
<path d="M1176 909 c-32 -25 -35 -75 -7 -110 24 -29 84 -30 113 -2 30 30 27
81 -6 110 -34 28 -65 29 -100 2z"/>
</g>
</svg>
